<svg width="104" height="40" viewBox="0 0 104 40" fill="none" xmlns="http://www.w3.org/2000/svg">
<path d="M21.091 33.6324C21.091 34.7779 21.0152 35.7549 20.8636 36.5635C20.7288 37.3721 20.5351 38.0291 20.2824 38.5345C20.0297 39.0398 19.7181 39.4104 19.3475 39.6463C18.9937 39.8821 18.6063 40 18.1851 40C17.8651 40 17.5113 39.8905 17.1239 39.6715C16.7364 39.4525 16.3658 39.183 16.012 38.8629C15.6751 38.5429 15.3887 38.2144 15.1529 37.8775C14.9339 37.5406 14.8244 37.2458 14.8244 36.9931C14.8244 36.8246 14.8413 36.7151 14.875 36.6646C14.9255 36.6309 14.9845 36.6141 15.0518 36.6141C15.1361 36.6309 15.2287 36.6562 15.3298 36.6899C15.4477 36.7236 15.5741 36.7404 15.7088 36.7404C16.1805 36.7404 16.5174 36.4456 16.7196 35.856C16.9385 35.2496 17.048 34.2894 17.048 32.9754V24.8389H14.3696C14.1001 24.8389 13.8474 24.7547 13.6115 24.5863C13.3925 24.4178 13.1988 24.2072 13.0304 23.9545C12.8619 23.7019 12.7271 23.4239 12.6261 23.1207C12.5418 22.8175 12.4997 22.5311 12.4997 22.2616C12.4997 21.9752 12.5587 21.7309 12.6766 21.5288C12.8114 21.3266 13.0135 21.2256 13.283 21.2256H17.048V4.39675C15.2287 4.51467 13.5694 4.7842 12.0702 5.20534C10.5709 5.62648 9.2822 6.26661 8.20408 7.12574C7.12596 7.98487 6.28367 9.10511 5.67723 10.4864C5.08763 11.8509 4.79283 13.5524 4.79283 15.5907C4.79283 16.4835 4.87706 17.2921 5.04552 18.0165C5.23082 18.724 5.46666 19.3641 5.75304 19.9369C6.03941 20.5096 6.35106 21.015 6.68797 21.453C7.04173 21.891 7.38706 22.2784 7.72398 22.6153C8.01035 22.5311 8.2125 22.5648 8.33042 22.7164C8.44834 22.868 8.5073 23.0786 8.5073 23.3481C8.5073 23.685 8.4315 24.0388 8.27988 24.4094C8.14512 24.7631 7.95982 25.0916 7.72398 25.3949C7.48814 25.6812 7.21861 25.9255 6.91539 26.1276C6.62901 26.3129 6.33421 26.4056 6.03099 26.4056C5.89622 26.4056 5.76146 26.3887 5.62669 26.3551C5.50877 26.3214 5.38243 26.2456 5.24767 26.1276C4.87706 25.8581 4.43065 25.4201 3.90844 24.8137C3.38622 24.1904 2.88928 23.4239 2.4176 22.5142C1.94592 21.6046 1.54162 20.5686 1.20471 19.4062C0.867797 18.227 0.699341 16.9552 0.699341 15.5907C0.699341 10.6212 2.28283 6.83094 5.44981 4.21987C8.63364 1.60879 13.3252 0.303252 19.5244 0.303252C19.996 0.303252 20.5856 0.311675 21.2932 0.328521C22.0175 0.328521 22.784 0.328521 23.5926 0.328521C24.4012 0.328521 25.2182 0.336944 26.0436 0.353789C26.8859 0.370635 27.6608 0.379058 28.3683 0.379058C29.0927 0.379058 29.7076 0.387481 30.2129 0.404326C30.7351 0.404326 31.0889 0.404326 31.2742 0.404326C31.5269 0.404326 31.7375 0.387481 31.9059 0.353789C32.0744 0.303252 32.2091 0.252715 32.3102 0.202178C32.4281 0.151641 32.5124 0.109527 32.5629 0.075836C32.6303 0.025299 32.6892 3.05176e-05 32.7398 3.05176e-05C32.824 3.05176e-05 32.9082 0.0589903 32.9925 0.17691C33.0767 0.277984 33.1525 0.412749 33.2199 0.581206C33.2873 0.732816 33.3378 0.909696 33.3715 1.11184C33.422 1.31399 33.4473 1.51614 33.4473 1.71829C33.4473 2.02151 33.3968 2.34158 33.2957 2.67849C33.2114 2.99856 33.0683 3.29336 32.8661 3.56289C32.664 3.81557 32.4113 4.02614 32.1081 4.1946C31.8217 4.36305 31.4763 4.44728 31.0721 4.44728C30.9204 4.44728 30.6425 4.44728 30.2382 4.44728C29.8339 4.43044 29.3454 4.42201 28.7726 4.42201C28.2167 4.40517 27.6018 4.39675 26.928 4.39675C26.2542 4.3799 25.5719 4.37148 24.8813 4.37148C24.2074 4.35463 23.542 4.34621 22.8851 4.34621C22.2281 4.32936 21.6301 4.31252 21.091 4.29567V21.2256H27.5597C27.8293 21.0234 28.0314 20.9729 28.1662 21.0739C28.3009 21.175 28.3767 21.3603 28.3936 21.6298C28.4273 21.8994 28.4104 22.2194 28.3431 22.5901C28.2925 22.9607 28.1999 23.3144 28.0651 23.6513C27.9472 23.9714 27.804 24.2493 27.6355 24.4852C27.4671 24.721 27.2818 24.8389 27.0796 24.8389H21.091V33.6324Z" fill="#7569DE"/>
<path d="M42.5187 37.9786C41.9122 37.9786 41.2889 37.8859 40.6488 37.7006C40.0255 37.5153 39.4528 37.1952 38.9305 36.7404C38.4252 36.2856 38.004 35.6875 37.6671 34.9463C37.3471 34.1883 37.187 33.2365 37.187 32.091C37.187 30.4233 37.406 28.6629 37.844 26.8099C38.2988 24.94 38.9474 22.8848 39.7897 20.6444H35.8478H35.2666C35.2498 21.1497 35.2161 21.7899 35.1655 22.5648C35.1319 23.3397 35.0645 24.1651 34.9634 25.0411C34.8623 25.9171 34.7276 26.8015 34.5591 27.6943C34.4075 28.5871 34.2138 29.4125 33.9779 30.1706C33.8095 30.7097 33.5399 31.0213 33.1693 31.1055C32.8156 31.1898 32.4618 31.1308 32.1081 30.9286C31.7543 30.7097 31.4679 30.398 31.2489 29.9937C31.0299 29.5894 30.9794 29.1683 31.0973 28.7303C31.2321 28.2081 31.35 27.5764 31.4511 26.8352C31.5522 26.0771 31.628 25.2854 31.6785 24.4599C31.7459 23.6176 31.7964 22.7838 31.8301 21.9583C31.8638 21.1161 31.8891 20.3664 31.9059 19.7094C31.2658 19.3557 30.7351 18.9093 30.314 18.3702C29.8929 17.8143 29.6823 17.1573 29.6823 16.3993C29.6823 16.0455 29.7497 15.7254 29.8844 15.4391C30.036 15.1358 30.2298 14.8832 30.4656 14.681C30.7014 14.462 30.9794 14.302 31.2995 14.2009C31.6195 14.083 31.948 14.024 32.2849 14.024C32.5882 14.024 32.8998 14.0662 33.2199 14.1504C33.5568 14.2346 33.8684 14.3862 34.1548 14.6052C34.458 14.8242 34.7276 15.1106 34.9634 15.4643C35.1992 15.8181 35.393 16.2561 35.5446 16.7783C35.9657 16.8288 36.3195 16.871 36.6058 16.9046C36.9091 16.9215 37.1618 16.9383 37.3639 16.9552C37.5661 16.972 37.7345 16.9804 37.8693 16.9804C38.004 16.9804 38.1388 16.9804 38.2736 16.9804H40.9773C41.1289 16.9804 41.3479 17.0731 41.6343 17.2584C41.9375 17.4437 42.2323 17.688 42.5187 17.9912C42.805 18.2776 43.0409 18.5892 43.2262 18.9261C43.4283 19.263 43.5041 19.5831 43.4536 19.8863C43.4536 19.9874 43.3946 20.2317 43.2767 20.6191C43.1588 21.0066 43.0156 21.4951 42.8472 22.0847C42.6787 22.6743 42.4934 23.3565 42.2913 24.1314C42.0891 24.8895 41.9038 25.6897 41.7353 26.5319C41.5669 27.3742 41.4237 28.2502 41.3058 29.1599C41.1879 30.0527 41.1289 30.9286 41.1289 31.7878C41.1289 32.1415 41.171 32.4869 41.2552 32.8238C41.3395 33.1607 41.4658 33.4639 41.6343 33.7334C41.8027 33.9861 42.0133 34.1883 42.266 34.3399C42.5355 34.4915 42.8472 34.5673 43.2009 34.5673C43.7905 34.5673 44.2959 34.382 44.717 34.0114C45.1382 33.6408 45.4919 33.1775 45.7783 32.6216C46.0647 32.0657 46.2921 31.4677 46.4606 30.8276C46.6459 30.1706 46.7975 29.5557 46.9154 28.983C47.0165 28.4439 47.1849 28.0565 47.4208 27.8206C47.6566 27.5679 47.9009 27.4416 48.1535 27.4416C48.3557 27.4416 48.5663 27.509 48.7853 27.6437C49.0042 27.7617 49.198 27.9217 49.3664 28.1238C49.5517 28.326 49.6949 28.5534 49.796 28.8061C49.9139 29.0588 49.9729 29.3115 49.9729 29.5642C49.9729 29.6484 49.9645 29.7158 49.9476 29.7663C49.9308 29.8168 49.9223 29.8674 49.9223 29.9179C49.6865 30.777 49.3749 31.6783 48.9874 32.6216C48.6168 33.565 48.1367 34.4325 47.5471 35.2243C46.9575 36.016 46.25 36.673 45.4245 37.1952C44.5991 37.7174 43.6305 37.9786 42.5187 37.9786Z" fill="#7569DE"/>
<path d="M61.3942 37.9786C60.8046 37.9786 60.2656 37.8859 59.777 37.7006C59.3054 37.5153 58.8842 37.2542 58.5136 36.9173C58.1599 36.5972 57.8651 36.2182 57.6292 35.7802C57.3934 35.3254 57.2333 34.8368 57.1491 34.3146C56.5258 35.4096 55.793 36.3024 54.9508 36.9931C54.1085 37.6838 53.1146 38.0291 51.9691 38.0291C51.11 38.0291 50.3351 37.8522 49.6444 37.4985C48.9706 37.1447 48.3978 36.6477 47.9261 36.0076C47.4544 35.3506 47.0923 34.5673 46.8396 33.6576C46.6037 32.7311 46.4858 31.7035 46.4858 30.5749C46.4858 29.2104 46.5785 27.8375 46.7638 26.4561C46.9659 25.0748 47.1849 23.8282 47.4208 22.7164C47.6903 21.4193 48.0019 20.1643 48.3557 18.9514C48.4399 18.7324 48.4989 18.5134 48.5326 18.2944C48.5831 18.0586 48.6842 17.848 48.8358 17.6627C48.9874 17.4774 49.2232 17.3258 49.5433 17.2079C49.8802 17.0899 50.394 17.031 51.0847 17.031C51.7248 17.031 52.1375 17.1489 52.3228 17.3847C52.5081 17.6037 52.5755 17.8648 52.525 18.1681C52.4913 18.4713 52.3902 18.7829 52.2218 19.103C52.0702 19.4231 51.9691 19.6842 51.9185 19.8863C51.6827 20.8465 51.4721 21.7225 51.2868 22.5142C51.1015 23.306 50.9415 24.1062 50.8067 24.9148C50.6888 25.7065 50.5962 26.5404 50.5288 27.4163C50.4614 28.2755 50.4277 29.2441 50.4277 30.3222C50.4277 31.7372 50.6299 32.8069 51.0341 33.5313C51.4553 34.2557 52.0449 34.6178 52.8029 34.6178C53.3252 34.6178 53.8053 34.4241 54.2432 34.0367C54.6981 33.6492 55.1024 33.1354 55.4561 32.4953C55.8267 31.8383 56.1468 31.0971 56.4163 30.2717C56.6859 29.4294 56.8964 28.5534 57.048 27.6437V19.3051C57.048 18.9345 57.0144 18.6397 56.947 18.4208C56.8964 18.2018 56.8375 18.0333 56.7701 17.9154C56.7196 17.7806 56.6606 17.6795 56.5932 17.6122C56.5427 17.5279 56.5174 17.4353 56.5174 17.3342C56.5174 17.25 56.5679 17.1742 56.669 17.1068C56.7701 17.0394 56.9049 16.9804 57.0733 16.9299C57.2418 16.8794 57.4187 16.8457 57.604 16.8288C57.8061 16.7951 57.9998 16.7783 58.1851 16.7783C59.0443 16.7783 59.7181 17.0057 60.2066 17.4605C60.712 17.8985 60.9647 18.4292 60.9647 19.0525V32.1921C60.9647 32.31 60.9731 32.5037 60.9899 32.7732C61.0068 33.0259 61.0573 33.287 61.1415 33.5566C61.2258 33.8261 61.3605 34.0619 61.5458 34.2641C61.7311 34.4662 61.9922 34.5673 62.3292 34.5673C62.8514 34.5673 63.2978 34.382 63.6684 34.0114C64.0558 33.6408 64.3843 33.1775 64.6539 32.6216C64.9402 32.0657 65.1677 31.4677 65.3361 30.8276C65.5214 30.1706 65.673 29.5557 65.7909 28.983C65.892 28.4439 66.0605 28.0565 66.2963 27.8206C66.5321 27.5679 66.7764 27.4416 67.0291 27.4416C67.2312 27.4416 67.4418 27.509 67.6608 27.6437C67.8798 27.7617 68.0735 27.9217 68.242 28.1238C68.4273 28.326 68.5705 28.5534 68.6715 28.8061C68.7895 29.0588 68.8484 29.3115 68.8484 29.5642C68.8484 29.5978 68.8484 29.64 68.8484 29.6905C68.8484 29.741 68.8316 29.8168 68.7979 29.9179C68.5621 30.777 68.2504 31.6783 67.863 32.6216C67.4924 33.565 67.0123 34.4325 66.4227 35.2243C65.8331 36.016 65.1255 36.673 64.3001 37.1952C63.4747 37.7174 62.506 37.9786 61.3942 37.9786Z" fill="#7569DE"/>
<path d="M68.7474 11.6488C68.3262 11.6488 67.9219 11.5646 67.5345 11.3961C67.1639 11.2277 66.8354 11.0002 66.549 10.7139C66.2795 10.4275 66.0605 10.099 65.892 9.72839C65.7236 9.34094 65.6393 8.92823 65.6393 8.49024C65.6393 8.03541 65.7236 7.61427 65.892 7.22682C66.0605 6.83937 66.2795 6.51088 66.549 6.24134C66.8354 5.95497 67.1639 5.73598 67.5345 5.58436C67.9219 5.41591 68.3262 5.33168 68.7474 5.33168C69.2022 5.33168 69.6233 5.41591 70.0108 5.58436C70.3982 5.73598 70.7267 5.95497 70.9962 6.24134C71.2826 6.51088 71.5016 6.83937 71.6532 7.22682C71.8217 7.61427 71.9059 8.03541 71.9059 8.49024C71.9059 8.92823 71.8217 9.34094 71.6532 9.72839C71.5016 10.099 71.2826 10.4275 70.9962 10.7139C70.7267 11.0002 70.3982 11.2277 70.0108 11.3961C69.6233 11.5646 69.2022 11.6488 68.7474 11.6488ZM69.935 32.1921C69.935 32.31 69.9434 32.5037 69.9602 32.7732C69.9771 33.0259 70.0276 33.287 70.1119 33.5566C70.1961 33.8261 70.3308 34.0619 70.5161 34.2641C70.7014 34.4662 70.9626 34.5673 71.2995 34.5673C71.8048 34.5673 72.2428 34.382 72.6134 34.0114C73.0009 33.6408 73.3294 33.1775 73.5989 32.6216C73.8853 32.0657 74.1211 31.4677 74.3064 30.8276C74.4917 30.1706 74.6433 29.5557 74.7613 28.983C74.8623 28.4608 75.0139 28.0817 75.2161 27.8459C75.4351 27.6101 75.6625 27.4837 75.8983 27.4669C76.151 27.4332 76.3953 27.4921 76.6311 27.6437C76.8838 27.7954 77.1028 27.9975 77.2881 28.2502C77.4902 28.486 77.6334 28.7556 77.7177 29.0588C77.8187 29.362 77.8356 29.6484 77.7682 29.9179C77.5324 30.777 77.2207 31.6783 76.8333 32.6216C76.4627 33.565 75.9826 34.4325 75.393 35.2243C74.8034 36.016 74.0958 36.673 73.2704 37.1952C72.445 37.7174 71.4763 37.9786 70.3645 37.9786C69.6739 37.9786 69.059 37.8438 68.5199 37.5743C67.9809 37.3216 67.526 36.9762 67.1554 36.5382C66.7848 36.1003 66.4985 35.5865 66.2963 34.9969C66.111 34.4073 66.0184 33.784 66.0184 33.127V19.3051C66.0184 18.8166 65.9762 18.4629 65.892 18.2439C65.8246 18.0249 65.7909 17.8227 65.7909 17.6374C65.7909 17.3847 65.9257 17.1826 66.1952 17.031C66.4648 16.8625 66.7848 16.7783 67.1554 16.7783C68.0146 16.7783 68.6884 17.0057 69.1769 17.4605C69.6823 17.8985 69.935 18.4292 69.935 19.0525V32.1921Z" fill="#7569DE"/>
<path d="M70.2887 12.2047C70.6762 12.2384 71.1057 12.2637 71.5774 12.2805C71.9817 12.3142 72.4702 12.3395 73.043 12.3563C73.6157 12.3563 74.2559 12.3647 74.9634 12.3816V3.61342C74.9634 3.24282 74.9297 2.94802 74.8623 2.72903C74.8118 2.51003 74.7528 2.34158 74.6854 2.22366C74.6349 2.08889 74.5759 1.98782 74.5086 1.92043C74.458 1.83621 74.4328 1.75198 74.4328 1.66775C74.4328 1.56668 74.4833 1.48245 74.5844 1.41507C74.6854 1.34768 74.8202 1.28872 74.9887 1.23819C75.1571 1.18765 75.334 1.15396 75.5193 1.13711C75.7215 1.10342 75.9152 1.08658 76.1005 1.08658C76.9596 1.08658 77.6334 1.31399 78.122 1.76882C78.6273 2.20681 78.88 2.73745 78.88 3.36074V12.4321C80.4635 12.4321 82.1312 12.4153 83.8832 12.3816C85.652 12.3479 87.4208 12.2889 89.1896 12.2047C89.4254 11.952 89.6107 11.8594 89.7455 11.9268C89.8971 11.9941 89.9897 12.1542 90.0234 12.4069C90.0739 12.6595 90.0824 12.9712 90.0487 13.3418C90.015 13.7124 89.9476 14.0746 89.8465 14.4283C89.7455 14.7652 89.6023 15.06 89.417 15.3127C89.2485 15.5654 89.0548 15.6918 88.8358 15.6918C86.7638 15.7423 84.9276 15.776 83.3273 15.7928C81.7438 15.7928 80.2614 15.7928 78.88 15.7928V32.1921C78.88 33.0344 79.04 33.6408 79.3601 34.0114C79.6802 34.382 80.1097 34.5673 80.6488 34.5673C81.171 34.5673 81.6174 34.382 81.988 34.0114C82.3755 33.6408 82.704 33.1775 82.9735 32.6216C83.2599 32.0657 83.4873 31.4677 83.6558 30.8276C83.8411 30.1706 83.9927 29.5557 84.1106 28.983C84.2117 28.4439 84.3801 28.0565 84.616 27.8206C84.8518 27.5679 85.0961 27.4416 85.3487 27.4416C85.5509 27.4416 85.7615 27.509 85.9805 27.6437C86.1994 27.7617 86.3932 27.9217 86.5616 28.1238C86.7469 28.326 86.8901 28.5534 86.9912 28.8061C87.1091 29.0588 87.1681 29.3115 87.1681 29.5642C87.1681 29.5978 87.1681 29.64 87.1681 29.6905C87.1681 29.741 87.1512 29.8168 87.1175 29.9179C86.8985 30.777 86.5953 31.6783 86.2079 32.6216C85.8373 33.565 85.3487 34.4325 84.7423 35.2243C84.1527 36.016 83.4452 36.673 82.6197 37.1952C81.7943 37.7174 80.8257 37.9786 79.7139 37.9786C79.0232 37.9786 78.3831 37.8691 77.7935 37.6501C77.2207 37.4479 76.7238 37.111 76.3026 36.6393C75.8815 36.1845 75.553 35.5949 75.3172 34.8705C75.0813 34.1462 74.9634 33.2702 74.9634 32.2426V15.7928C74.3906 15.7928 73.8769 15.7928 73.422 15.7928C72.984 15.776 72.6134 15.7591 72.3102 15.7423C71.9564 15.7254 71.6448 15.7086 71.3753 15.6918C70.971 15.6918 70.6172 15.5149 70.314 15.1611C69.9939 14.7905 69.7749 14.3862 69.657 13.9482C69.5223 13.5102 69.5054 13.1144 69.6065 12.7606C69.6907 12.39 69.9181 12.2047 70.2887 12.2047Z" fill="#7569DE"/>
<path d="M87.2944 29.4378C87.1597 29.9769 86.907 30.3138 86.5364 30.4485C86.1658 30.5665 85.7952 30.5496 85.4245 30.398C85.0708 30.2464 84.7676 29.9853 84.5149 29.6147C84.279 29.2441 84.2117 28.8398 84.3127 28.4018C84.5654 27.2563 84.9276 25.9929 85.3993 24.6115C85.8878 23.2133 86.3679 21.8236 86.8396 20.4422C86.5869 20.0548 86.3848 19.6673 86.2331 19.2799C86.0815 18.8756 86.0057 18.4544 86.0057 18.0165C86.0057 17.5785 86.1658 17.1236 86.4858 16.652C86.8227 16.1634 87.2186 15.717 87.6734 15.3127C88.1451 14.9084 88.6252 14.5799 89.1137 14.3273C89.6191 14.0577 90.0487 13.923 90.4024 13.923C91.0257 13.923 91.489 14.1335 91.7922 14.5547C92.1123 14.9758 92.2723 15.5401 92.2723 16.2477C92.2723 16.6351 92.2049 17.0226 92.0702 17.41C91.9522 17.7806 91.8175 18.1344 91.6659 18.4713C91.5143 18.7914 91.3711 19.0693 91.2363 19.3051C91.1184 19.541 91.051 19.6926 91.0342 19.76C91.6406 20.8381 92.2723 21.7899 92.9293 22.6153C93.5863 23.4408 94.1843 24.2578 94.7233 25.0664C95.2793 25.875 95.7341 26.7341 96.0878 27.6437C96.4416 28.5534 96.6185 29.6231 96.6185 30.8528C96.6185 31.1561 96.5932 31.4677 96.5427 31.7878C96.509 32.1078 96.45 32.4111 96.3658 32.6974C96.9722 32.5795 97.5029 32.3942 97.9577 32.1415C98.4294 31.8889 98.8337 31.6025 99.1706 31.2824C99.5244 30.9455 99.8107 30.5833 100.03 30.1959C100.266 29.8084 100.459 29.4041 100.611 28.983C100.796 28.4945 100.982 28.1407 101.167 27.9217C101.352 27.7027 101.563 27.5932 101.799 27.5932C102.018 27.5932 102.237 27.669 102.456 27.8206C102.691 27.9554 102.893 28.1323 103.062 28.3513C103.247 28.5703 103.39 28.7977 103.492 29.0335C103.609 29.2694 103.668 29.4799 103.668 29.6652C103.668 29.9179 103.601 30.2211 103.466 30.5749C103.331 30.9286 103.146 31.2908 102.91 31.6614C102.691 32.032 102.439 32.3942 102.152 32.748C101.866 33.0849 101.571 33.3797 101.268 33.6324C100.459 34.2894 99.5075 34.8453 98.4125 35.3001C97.3176 35.7381 95.9615 36.016 94.3443 36.134C93.721 36.673 92.9798 37.111 92.1207 37.4479C91.2784 37.8017 90.3266 37.9786 89.2654 37.9786C88.7263 37.9786 88.1704 37.9112 87.5976 37.7764C87.0417 37.6416 86.5027 37.4648 85.9805 37.2458C85.4751 37.0436 85.0118 36.8162 84.5907 36.5635C84.1695 36.3108 83.8326 36.0581 83.5799 35.8055C82.9398 35.199 82.5271 34.5926 82.3418 33.9861C82.1565 33.3628 82.1144 32.8069 82.2155 32.3184C82.2997 31.8299 82.4766 31.434 82.7461 31.1308C83.0156 30.8107 83.2936 30.6507 83.5799 30.6507C83.7484 30.6507 84.0095 30.7265 84.3633 30.8781C84.7339 31.0129 85.155 31.1982 85.6267 31.434C86.0984 31.653 86.6122 31.8889 87.1681 32.1415C87.724 32.3942 88.2799 32.6385 88.8358 32.8743C89.3917 33.0933 89.9308 33.2786 90.453 33.4302C90.992 33.565 91.4806 33.6324 91.9185 33.6324C92.2049 33.2955 92.466 32.8491 92.7019 32.2931C92.9377 31.7372 93.0556 31.1308 93.0556 30.4738C93.0556 29.6652 92.9461 28.9156 92.7271 28.2249C92.5081 27.5342 92.2218 26.8941 91.868 26.3045C91.5143 25.7149 91.11 25.1674 90.6551 24.6621C90.2171 24.1399 89.7707 23.6513 89.3159 23.1965C88.9116 24.1904 88.5578 25.1759 88.2546 26.1529C87.9514 27.1131 87.6313 28.2081 87.2944 29.4378Z" fill="#7569DE"/>
</svg>
