<svg width="140" height="51" viewBox="0 0 140 51" fill="none" xmlns="http://www.w3.org/2000/svg">
<path d="M15.9464 26.5895C16.693 26.5895 17.0664 27.1495 17.0664 28.2695C17.0664 30.3762 15.413 31.4295 12.1064 31.4295C11.4664 31.4295 10.5464 31.3095 9.34636 31.0695C9.69303 32.7228 9.97303 34.5628 10.1864 36.5895C10.4264 38.5895 10.5464 40.2428 10.5464 41.5495C10.5464 44.4295 10.0797 46.6295 9.14636 48.1495C8.21303 49.6695 6.98636 50.4295 5.46636 50.4295C3.54636 50.4295 2.17303 49.0695 1.34636 46.3495C0.546363 43.6295 0.146362 39.5229 0.146362 34.0295C0.146362 28.9095 0.693029 23.7228 1.78636 18.4695C2.90636 13.1895 4.42636 8.82952 6.34636 5.38951C8.29303 1.92285 10.4264 0.189514 12.7464 0.189514C13.9997 0.189514 14.973 0.749515 15.6664 1.86951C16.3864 2.98951 16.7464 4.49618 16.7464 6.38951C16.7464 12.6562 12.9997 19.4829 5.50636 26.8695C5.2397 29.4829 5.10636 31.7762 5.10636 33.7495C5.10636 36.4962 5.1997 39.3095 5.38636 42.1895C5.57303 45.0962 5.8797 46.5495 6.30636 46.5495C7.10636 46.5495 7.50636 45.1628 7.50636 42.3895C7.50636 40.3095 7.3597 38.2962 7.06636 36.3495C6.7997 34.4029 6.42636 32.3495 5.94636 30.1895C5.9197 29.8428 6.02636 29.4028 6.26636 28.8695C6.53303 28.3362 6.85303 27.8695 7.22636 27.4695C7.5997 27.0695 7.93303 26.8695 8.22636 26.8695C8.7597 26.8695 9.3997 26.8962 10.1464 26.9495C10.3864 26.9762 10.6664 26.9895 10.9864 26.9895C12.053 26.9895 13.2397 26.8962 14.5464 26.7095C14.7597 26.6828 14.9864 26.6562 15.2264 26.6295C15.4664 26.6029 15.7064 26.5895 15.9464 26.5895ZM11.9064 4.14952C11.4264 4.14952 10.8264 4.96285 10.1064 6.58952C9.41303 8.21618 8.7197 10.3762 8.02636 13.0695C7.33303 15.7362 6.73303 18.5628 6.22636 21.5495C8.3597 19.1228 9.9997 16.6028 11.1464 13.9895C12.293 11.3495 12.8797 8.88285 12.9064 6.58952C12.9064 4.96285 12.573 4.14952 11.9064 4.14952Z" fill="#7569DE"/>
<path d="M16.8889 37.9895C15.8755 37.9895 15.1555 37.4562 14.7289 36.3895C14.3289 35.3228 14.1289 33.6162 14.1289 31.2695C14.1289 27.8028 14.6222 24.5095 15.6089 21.3895C15.8489 20.6162 16.2355 20.0562 16.7689 19.7095C17.3289 19.3362 18.1022 19.1495 19.0889 19.1495C19.6222 19.1495 19.9955 19.2162 20.2089 19.3495C20.4222 19.4828 20.5289 19.7362 20.5289 20.1095C20.5289 20.5362 20.3289 21.4962 19.9289 22.9895C19.6622 24.0562 19.4489 24.9895 19.2889 25.7895C19.1289 26.5895 18.9955 27.5762 18.8889 28.7495C19.7689 26.4562 20.7555 24.5895 21.8489 23.1495C22.9422 21.7095 24.0089 20.6828 25.0489 20.0695C26.1155 19.4562 27.0889 19.1495 27.9689 19.1495C29.7022 19.1495 30.5689 20.0162 30.5689 21.7495C30.5689 22.0962 30.4489 22.9362 30.2089 24.2695C29.9955 25.3362 29.8889 26.0028 29.8889 26.2695C29.8889 27.2028 30.2222 27.6695 30.8889 27.6695C31.6355 27.6695 32.5955 27.0828 33.7689 25.9095C34.1155 25.5628 34.4755 25.3895 34.8489 25.3895C35.1955 25.3895 35.4622 25.5495 35.6489 25.8695C35.8622 26.1628 35.9689 26.5628 35.9689 27.0695C35.9689 28.0562 35.7022 28.8295 35.1689 29.3895C34.4222 30.1628 33.5422 30.8295 32.5289 31.3895C31.5422 31.9228 30.4889 32.1895 29.3689 32.1895C27.9555 32.1895 26.8755 31.8295 26.1289 31.1095C25.4089 30.3895 25.0489 29.4162 25.0489 28.1895C25.0489 27.7895 25.0889 27.3895 25.1689 26.9895C25.2222 26.4562 25.2489 26.0962 25.2489 25.9095C25.2489 25.4828 25.1022 25.2695 24.8089 25.2695C24.4089 25.2695 23.8755 25.7228 23.2089 26.6295C22.5689 27.5095 21.9289 28.6829 21.2889 30.1495C20.6489 31.6162 20.1289 33.1628 19.7289 34.7895C19.4355 36.0428 19.0889 36.8962 18.6889 37.3495C18.3155 37.7762 17.7155 37.9895 16.8889 37.9895Z" fill="#7569DE"/>
<path d="M36.332 37.9895C35.132 37.9895 34.1453 37.4429 33.372 36.3495C32.6253 35.2295 32.252 33.8429 32.252 32.1895C32.252 30.1895 32.3853 28.3628 32.652 26.7095C32.9187 25.0295 33.3587 23.2562 33.972 21.3895C34.2387 20.5895 34.612 20.0162 35.092 19.6695C35.572 19.3229 36.332 19.1495 37.372 19.1495C37.9587 19.1495 38.3587 19.2428 38.572 19.4295C38.812 19.6162 38.932 19.8962 38.932 20.2695C38.932 20.4828 38.7853 21.2028 38.492 22.4295C38.2253 23.4162 38.012 24.3095 37.852 25.1095C37.3187 27.9095 37.052 29.7762 37.052 30.7095C37.052 31.2695 37.1187 31.6695 37.252 31.9095C37.3853 32.1228 37.5987 32.2295 37.892 32.2295C38.292 32.2295 38.7853 31.8295 39.372 31.0295C39.9853 30.2295 40.6253 29.0162 41.292 27.3895C41.9853 25.7628 42.652 23.7628 43.292 21.3895C43.5053 20.5895 43.8253 20.0162 44.252 19.6695C44.7053 19.3229 45.372 19.1495 46.252 19.1495C46.8653 19.1495 47.292 19.2295 47.532 19.3895C47.772 19.5228 47.892 19.7895 47.892 20.1895C47.892 20.8562 47.5587 22.6829 46.892 25.6695C46.1453 29.0829 45.772 31.1895 45.772 31.9895C45.772 32.4962 45.8787 32.8962 46.092 33.1895C46.3053 33.4562 46.5853 33.5895 46.932 33.5895C47.4653 33.5895 48.092 33.2695 48.812 32.6295C49.5587 31.9628 50.5453 30.8962 51.772 29.4295C52.092 29.0562 52.452 28.8695 52.852 28.8695C53.1987 28.8695 53.4653 29.0295 53.652 29.3495C53.8653 29.6695 53.972 30.1095 53.972 30.6695C53.972 31.7362 53.7187 32.5629 53.212 33.1495C52.0653 34.5629 50.8253 35.7228 49.492 36.6295C48.1853 37.5362 46.692 37.9895 45.012 37.9895C43.732 37.9895 42.7853 37.4962 42.172 36.5095C41.5853 35.5229 41.292 34.1362 41.292 32.3495C40.8387 34.1629 40.1587 35.5628 39.252 36.5495C38.3453 37.5095 37.372 37.9895 36.332 37.9895Z" fill="#7569DE"/>
<path d="M68.5686 28.8695C68.9152 28.8695 69.1819 29.0295 69.3685 29.3495C69.5819 29.6695 69.6885 30.1095 69.6885 30.6695C69.6885 31.7362 69.4352 32.5629 68.9286 33.1495C67.7819 34.5629 66.5285 35.7228 65.1685 36.6295C63.8085 37.5362 62.2485 37.9895 60.4885 37.9895C55.0485 37.9895 52.3286 34.1629 52.3286 26.5095C52.3286 25.3362 52.3685 24.1495 52.4485 22.9495H50.8885C50.0885 22.9495 49.5419 22.8028 49.2486 22.5095C48.9819 22.2162 48.8485 21.7495 48.8485 21.1095C48.8485 19.6162 49.4486 18.8695 50.6486 18.8695H52.9286C53.3819 15.9362 54.0752 13.2562 55.0086 10.8295C55.9419 8.40285 57.0619 6.46951 58.3686 5.02951C59.7019 3.58952 61.1286 2.86951 62.6486 2.86951C63.7686 2.86951 64.6486 3.36285 65.2886 4.34952C65.9286 5.33618 66.2486 6.57618 66.2486 8.06952C66.2486 12.2028 64.5152 15.8028 61.0486 18.8695H65.5285C65.9552 18.8695 66.2619 18.9629 66.4485 19.1495C66.6352 19.3362 66.7285 19.6828 66.7285 20.1895C66.7285 22.0295 65.2219 22.9495 62.2085 22.9495H57.3286C57.2752 24.2828 57.2486 25.3228 57.2486 26.0695C57.2486 28.8428 57.5685 30.7895 58.2085 31.9095C58.8752 33.0295 59.9152 33.5895 61.3286 33.5895C62.4752 33.5895 63.4885 33.2428 64.3685 32.5495C65.2485 31.8562 66.2885 30.8162 67.4885 29.4295C67.8085 29.0562 68.1686 28.8695 68.5686 28.8695ZM61.5686 6.70952C61.1686 6.70952 60.7152 7.21618 60.2085 8.22952C59.7285 9.21618 59.2619 10.6028 58.8085 12.3895C58.3819 14.1495 58.0219 16.1095 57.7286 18.2695C59.3019 16.9095 60.4752 15.3895 61.2486 13.7095C62.0486 12.0028 62.4485 10.4562 62.4485 9.06952C62.4485 7.49618 62.1552 6.70952 61.5686 6.70952Z" fill="#7569DE"/>
<path d="M71.3517 37.9895C69.6183 37.9895 68.3517 37.3762 67.5517 36.1495C66.7783 34.9229 66.3917 33.2962 66.3917 31.2695C66.3917 30.0695 66.5383 28.5362 66.8317 26.6695C67.1517 24.7762 67.5517 23.0162 68.0317 21.3895C68.2717 20.5362 68.5917 19.9495 68.9917 19.6295C69.3917 19.3095 70.0317 19.1495 70.9117 19.1495C72.2717 19.1495 72.9517 19.6029 72.9517 20.5095C72.9517 21.1762 72.6983 22.7229 72.1917 25.1495C71.5517 28.0829 71.2317 30.0695 71.2317 31.1095C71.2317 31.9095 71.3383 32.5228 71.5517 32.9495C71.765 33.3762 72.125 33.5895 72.6317 33.5895C73.1117 33.5895 73.7117 33.2562 74.4317 32.5895C75.1517 31.9228 76.1117 30.8695 77.3117 29.4295C77.6317 29.0562 77.9917 28.8695 78.3917 28.8695C78.7383 28.8695 79.005 29.0295 79.1917 29.3495C79.405 29.6695 79.5117 30.1095 79.5117 30.6695C79.5117 31.7362 79.2583 32.5629 78.7517 33.1495C76.1117 36.3762 73.645 37.9895 71.3517 37.9895ZM71.2717 16.5095C70.8983 16.5095 70.565 16.3762 70.2717 16.1095C70.005 15.8162 69.8717 15.4695 69.8717 15.0695C69.8717 14.8828 69.9383 14.6295 70.0717 14.3095L73.7917 5.98952C74.0317 5.45618 74.3383 5.06951 74.7117 4.82951C75.1117 4.56285 75.5517 4.42951 76.0317 4.42951C76.6983 4.42951 77.285 4.66951 77.7917 5.14952C78.325 5.62952 78.5917 6.22952 78.5917 6.94952C78.5917 7.69618 78.2983 8.44285 77.7117 9.18951L72.5517 15.8295C72.205 16.2828 71.7783 16.5095 71.2717 16.5095Z" fill="#7569DE"/>
<path d="M91.8448 26.5895C92.5915 26.5895 92.9648 27.1495 92.9648 28.2695C92.9648 30.3762 91.3115 31.4295 88.0048 31.4295C87.3648 31.4295 86.4448 31.3095 85.2448 31.0695C85.5915 32.7228 85.8715 34.5628 86.0848 36.5895C86.3248 38.5895 86.4448 40.2428 86.4448 41.5495C86.4448 44.4295 85.9781 46.6295 85.0448 48.1495C84.1115 49.6695 82.8848 50.4295 81.3648 50.4295C79.4448 50.4295 78.0715 49.0695 77.2448 46.3495C76.4448 43.6295 76.0448 39.5229 76.0448 34.0295C76.0448 28.9095 76.5915 23.7228 77.6848 18.4695C78.8048 13.1895 80.3248 8.82952 82.2448 5.38951C84.1915 1.92285 86.3248 0.189514 88.6448 0.189514C89.8981 0.189514 90.8715 0.749515 91.5648 1.86951C92.2848 2.98951 92.6448 4.49618 92.6448 6.38951C92.6448 12.6562 88.8981 19.4829 81.4048 26.8695C81.1381 29.4829 81.0048 31.7762 81.0048 33.7495C81.0048 36.4962 81.0981 39.3095 81.2848 42.1895C81.4715 45.0962 81.7781 46.5495 82.2048 46.5495C83.0048 46.5495 83.4048 45.1628 83.4048 42.3895C83.4048 40.3095 83.2581 38.2962 82.9648 36.3495C82.6981 34.4029 82.3248 32.3495 81.8448 30.1895C81.8181 29.8428 81.9248 29.4028 82.1648 28.8695C82.4315 28.3362 82.7515 27.8695 83.1248 27.4695C83.4981 27.0695 83.8315 26.8695 84.1248 26.8695C84.6581 26.8695 85.2981 26.8962 86.0448 26.9495C86.2848 26.9762 86.5648 26.9895 86.8848 26.9895C87.9515 26.9895 89.1381 26.8962 90.4448 26.7095C90.6581 26.6828 90.8848 26.6562 91.1248 26.6295C91.3648 26.6029 91.6048 26.5895 91.8448 26.5895ZM87.8048 4.14952C87.3248 4.14952 86.7248 4.96285 86.0048 6.58952C85.3115 8.21618 84.6181 10.3762 83.9248 13.0695C83.2315 15.7362 82.6315 18.5628 82.1248 21.5495C84.2581 19.1228 85.8981 16.6028 87.0448 13.9895C88.1915 11.3495 88.7781 8.88285 88.8048 6.58952C88.8048 4.96285 88.4715 4.14952 87.8048 4.14952Z" fill="#7569DE"/>
<path d="M107.787 28.8695C108.134 28.8695 108.401 29.0295 108.587 29.3495C108.801 29.6695 108.907 30.1095 108.907 30.6695C108.907 31.7362 108.654 32.5629 108.147 33.1495C107.161 34.3495 105.761 35.4562 103.947 36.4695C102.161 37.4829 100.241 37.9895 98.1873 37.9895C95.3873 37.9895 93.214 37.2295 91.6673 35.7095C90.1206 34.1895 89.3473 32.1095 89.3473 29.4695C89.3473 27.6295 89.734 25.9228 90.5073 24.3495C91.2806 22.7495 92.3473 21.4828 93.7073 20.5495C95.094 19.6162 96.654 19.1495 98.3873 19.1495C99.934 19.1495 101.174 19.6162 102.107 20.5495C103.041 21.4562 103.507 22.6962 103.507 24.2695C103.507 26.1095 102.841 27.6962 101.507 29.0295C100.201 30.3362 97.974 31.3762 94.8273 32.1495C95.494 33.3762 96.7606 33.9895 98.6273 33.9895C99.8273 33.9895 101.187 33.5762 102.707 32.7495C104.254 31.8962 105.587 30.7895 106.707 29.4295C107.027 29.0562 107.387 28.8695 107.787 28.8695ZM97.7073 23.0695C96.7206 23.0695 95.8806 23.6428 95.1873 24.7895C94.5206 25.9362 94.1873 27.3228 94.1873 28.9495V29.0295C95.7606 28.6562 97.0006 28.0962 97.9073 27.3495C98.814 26.6029 99.2673 25.7362 99.2673 24.7495C99.2673 24.2428 99.1206 23.8428 98.8273 23.5495C98.5606 23.2295 98.1873 23.0695 97.7073 23.0695Z" fill="#7569DE"/>
<path d="M108.49 37.9895C107.477 37.9895 106.757 37.4562 106.33 36.3895C105.93 35.3228 105.73 33.6162 105.73 31.2695C105.73 27.8028 106.224 24.5095 107.21 21.3895C107.45 20.6162 107.837 20.0562 108.37 19.7095C108.93 19.3362 109.704 19.1495 110.69 19.1495C111.224 19.1495 111.597 19.2162 111.81 19.3495C112.024 19.4828 112.13 19.7362 112.13 20.1095C112.13 20.5362 111.93 21.4962 111.53 22.9895C111.264 24.0562 111.05 24.9895 110.89 25.7895C110.73 26.5895 110.597 27.5762 110.49 28.7495C111.37 26.4562 112.357 24.5895 113.45 23.1495C114.544 21.7095 115.61 20.6828 116.65 20.0695C117.717 19.4562 118.69 19.1495 119.57 19.1495C121.304 19.1495 122.17 20.0162 122.17 21.7495C122.17 22.0962 122.05 22.9362 121.81 24.2695C121.597 25.3362 121.49 26.0028 121.49 26.2695C121.49 27.2028 121.824 27.6695 122.49 27.6695C123.237 27.6695 124.197 27.0828 125.37 25.9095C125.717 25.5628 126.077 25.3895 126.45 25.3895C126.797 25.3895 127.064 25.5495 127.25 25.8695C127.464 26.1628 127.57 26.5628 127.57 27.0695C127.57 28.0562 127.304 28.8295 126.77 29.3895C126.024 30.1628 125.144 30.8295 124.13 31.3895C123.144 31.9228 122.09 32.1895 120.97 32.1895C119.557 32.1895 118.477 31.8295 117.73 31.1095C117.01 30.3895 116.65 29.4162 116.65 28.1895C116.65 27.7895 116.69 27.3895 116.77 26.9895C116.824 26.4562 116.85 26.0962 116.85 25.9095C116.85 25.4828 116.704 25.2695 116.41 25.2695C116.01 25.2695 115.477 25.7228 114.81 26.6295C114.17 27.5095 113.53 28.6829 112.89 30.1495C112.25 31.6162 111.73 33.1628 111.33 34.7895C111.037 36.0428 110.69 36.8962 110.29 37.3495C109.917 37.7762 109.317 37.9895 108.49 37.9895Z" fill="#7569DE"/>
<path d="M128.454 37.9895C126.934 37.9895 125.694 37.3895 124.734 36.1895C123.8 34.9895 123.334 33.4162 123.334 31.4695C123.334 29.3362 123.827 27.3228 124.814 25.4295C125.8 23.5095 127.107 21.9762 128.734 20.8295C130.387 19.6562 132.134 19.0695 133.974 19.0695C134.56 19.0695 134.947 19.1895 135.134 19.4295C135.347 19.6428 135.52 20.0428 135.654 20.6295C136.16 20.5228 136.72 20.4695 137.334 20.4695C137.974 20.4695 138.467 20.6295 138.814 20.9495C139.16 21.2695 139.334 21.7229 139.334 22.3095C139.334 22.9229 139.2 23.9895 138.934 25.5095C138.64 27.1362 138.414 28.6962 138.254 30.1895C138.094 31.6562 138.014 33.3095 138.014 35.1495C138.014 36.1629 137.8 36.8962 137.374 37.3495C136.974 37.7762 136.307 37.9895 135.374 37.9895C134.467 37.9895 133.787 37.7762 133.334 37.3495C132.907 36.8962 132.694 36.1762 132.694 35.1895L132.734 34.5495C131.907 36.8428 130.48 37.9895 128.454 37.9895ZM130.014 33.9495C130.76 33.9495 131.44 33.4295 132.054 32.3895C132.667 31.3495 133.214 29.4962 133.694 26.8295L134.454 22.7895C133.36 22.8162 132.347 23.2428 131.414 24.0695C130.48 24.8695 129.734 25.9362 129.174 27.2695C128.614 28.6028 128.334 30.0162 128.334 31.5095C128.334 32.3095 128.48 32.9229 128.774 33.3495C129.094 33.7495 129.507 33.9495 130.014 33.9495Z" fill="#7569DE"/>
</svg>
